<?xml version="1.0" encoding="utf-8"?>
<!DOCTYPE svg PUBLIC "-//W3C//DTD SVG 1.1//EN" "http://www.w3.org/Graphics/SVG/1.1/DTD/svg11.dtd">
<svg version="1.1" xmlns="http://www.w3.org/2000/svg" xmlns:xlink="http://www.w3.org/1999/xlink" xml:space="preserve">
<path d="M283.17,205.746l-12.735,13.335l19.122,191.045l145.273-14.541l12.735-13.334l-19.121-191.045L283.17,205.746z
	 M429.667,243.592c-1.511,0.47-3.004,0.991-4.474,1.627c-2.42,1.047-4.53,2.873-6.88,4.053c-0.593,0.146-1.185,0.292-1.771,0.457
	c1.608-4.651,8.537-8.458,12.652-10.851L429.667,243.592z M296.923,303.006c0.036,0.014,0.074,0.029,0.11,0.041
	c3.913,1.188,6.689-1.821,9.983-3.062c-2.481,2.604-6.176,4.573-8.442,7.245c-0.373,0.442-0.736,0.894-1.092,1.352L296.923,303.006z
	 M302.493,293.486c-2.719,1.447-4.696,3.314-5.931,5.898l-0.66-6.588c4.654-1.999,10.123-4.312,14.856-3.691
	C309.486,288.939,304.099,292.632,302.493,293.486z M299.93,333.033c1.992,0.794,3.934,0.848,6.242-0.328
	c1.706-0.866,3.095-2.356,4.477-3.646c2.619-2.448,5.585-4.493,8.487-6.585c6.988-5.04,14.035-9.775,21.377-14.098
	c-3.069,3.457-5.692,7.328-7.799,11.43c-0.263,0.125-0.501,0.334-0.677,0.644c-2.649,4.657-6.814,10.767-7.597,16.685
	c-0.608,1.921-0.896,3.816-0.681,5.527c0.37,2.916,2.101,3.469,4.298,2.913c3.812,0.783,8.175-2.675,10.966-4.667
	c1.845-1.316,3.628-2.854,5.425-4.402c12.023-5.658,24.37-10.513,37.509-12.912c10.965-2,22.556-3.125,33.449-0.637
	c0.297,0.139,0.594,0.275,0.89,0.415c0.397,0.188,0.765,0.186,1.079,0.071c2.456,0.668,4.873,1.521,7.23,2.615
	c1.758,0.813,2.989-1.922,1.233-2.735c-3.096-1.435-6.326-2.509-9.643-3.302c-4.509-2.039-9.079-3.591-13.851-3.675
	c0.293-2.708-3.009-3.737-6.963-4.027c-2.378-0.404-4.818-0.337-7.223,0.081c-2.124,0.154-3.875,0.369-4.684,0.465
	c-8.492,1.007-19.096,2.297-27.45,6.379c3.293-5.883,7.749-11.24,11.735-16.599c5.419-7.281,12.032-13.665,18.945-19.505
	c12.892-10.898,28.194-21.668,44.174-27.427l12.307,122.957l-137.313,13.744L299.93,333.033z"/>
</svg>
